<?xml version="1.0" encoding="utf-8"?>
<!-- Generator: Adobe Illustrator 18.0.0, SVG Export Plug-In . SVG Version: 6.00 Build 0)  -->
<!DOCTYPE svg PUBLIC "-//W3C//DTD SVG 1.1//EN" "http://www.w3.org/Graphics/SVG/1.1/DTD/svg11.dtd">
<svg version="1.1" id="Capa_1" xmlns="http://www.w3.org/2000/svg" xmlns:xlink="http://www.w3.org/1999/xlink" x="0px" y="0px"
	 viewBox="0 0 200 200" enable-background="new 0 0 200 200" xml:space="preserve">
<circle fill="#FFFFFF" cx="100" cy="100" r="100"/>
<path d="M95.4,135.6c-7.6-2.6-15-4.2-21.4-7.5c-19.6-10.2-27.6-30.4-25.4-52.7c1.7-17.6,10.2-30.7,26.8-37.8c3.8-1.6,8-2.1,12.1-2.9
	c0.8-0.2,1.8,0.8,2.7,1.2c-0.5,0.9-0.7,2.4-1.4,2.6c-14.6,5.1-19,17.1-20.7,30.7c-1.4,11.4-1.3,22.8,2,34
	c3.7,12.6,11.5,21.4,25.1,25.2c0.1-1.8,0.2-3.2,0.2-4.7c0-19.2,0-38.5,0.1-57.7c0-3.5,0.6-6.9,0.7-10.4
	c0.3-14.5,15.1-26.8,33.4-18.6c13.6,6.1,21.9,17.1,24.9,31.6c3.6,17.3,0.5,33.5-10.6,47.7c-7.9,10.2-18.7,15.1-31,17.2
	c-1.9,0.3-3.8,0.7-6,1c0,7.2,0,14.1,0,21.1c0,6.8,0,13.6,0,20.9c-3.4,0-6.3,0.3-9.1-0.2c-0.9-0.1-2.2-2.2-2.2-3.4
	c-0.2-11.3-0.1-22.6-0.1-33.9C95.4,137.8,95.4,136.4,95.4,135.6z M107.1,128.2c13.1-1.9,23-7.8,28.1-20.2c4.9-12,4.8-24.5,2-36.9
	c-1.7-7.6-4.9-14.6-10.7-19.9c-3.8-3.5-8.2-6-13.6-3.9c-5.3,2.1-5.9,6.9-6,11.8c0,1.4-0.1,2.8-0.1,4.2c0,20.6,0,41.2,0,61.8
	C106.8,125.9,107,126.9,107.1,128.2z"/>
</svg>
