<?xml version="1.0" encoding="utf-8"?>
<!-- Generator: Adobe Illustrator 18.0.0, SVG Export Plug-In . SVG Version: 6.00 Build 0)  -->
<!DOCTYPE svg PUBLIC "-//W3C//DTD SVG 1.1//EN" "http://www.w3.org/Graphics/SVG/1.1/DTD/svg11.dtd">
<svg version="1.1" id="Capa_1" xmlns="http://www.w3.org/2000/svg" xmlns:xlink="http://www.w3.org/1999/xlink" x="0px" y="0px"
	 viewBox="0 0 841.9 595.3" enable-background="new 0 0 841.9 595.3" xml:space="preserve">
<g>
	<defs>
		<polyline id="SVGID_1_" points="841.9,0 0,0 0,595 841.9,595 		"/>
	</defs>
	<clipPath id="SVGID_2_">
		<use xlink:href="#SVGID_1_"  overflow="visible"/>
	</clipPath>
	
		<linearGradient id="SVGID_3_" gradientUnits="userSpaceOnUse" x1="3.873896e-005" y1="595.276" x2="1" y2="595.276" gradientTransform="matrix(718.5 718.5 718.5 -718.5 -427644.125 427644.0625)">
		<stop  offset="0" style="stop-color:#06F5CA"/>
		<stop  offset="0.1838" style="stop-color:#19D5D1"/>
		<stop  offset="0.5882" style="stop-color:#4A84E3"/>
		<stop  offset="1" style="stop-color:#7F2CF6"/>
	</linearGradient>
	<polygon clip-path="url(#SVGID_2_)" fill="url(#SVGID_3_)" points="420.9,-420.9 1139.4,297.5 420.9,1015.9 -297.5,297.5 	"/>
</g>
<g>
	<defs>
		<polyline id="SVGID_4_" points="1398.2,672.7 410.9,672.7 410.9,-25.4 1398.2,-25.4 		"/>
	</defs>
	<clipPath id="SVGID_5_">
		<use xlink:href="#SVGID_4_"  overflow="visible"/>
	</clipPath>
	<polygon clip-path="url(#SVGID_5_)" fill-rule="evenodd" clip-rule="evenodd" fill="#FFFFFF" points="622.2,324 622.2,364.9 
		666.7,364.9 666.7,315.7 611,260 554.2,260 546.2,259.9 546.3,184.3 554.1,184.3 742.5,184.3 742.5,192.1 742.5,252.3 742.5,260.1 
		734.7,260.1 687.8,260.1 687.8,264 674.7,264 664.4,264 664.4,254.3 664.4,240.6 687.8,240.6 687.8,244.5 727,244.5 727,199.8 
		561.9,199.8 561.9,244.5 614.3,244.5 617.6,244.6 619.8,246.8 680,307 682.3,309.3 682.3,312.5 682.3,372.7 682.3,380.5 
		674.5,380.5 614.3,380.5 606.5,380.5 606.6,324 602.7,324 602.7,300.6 626.1,300.6 626.1,324 	"/>
</g>
<g opacity="0.29">
	<defs>
		<polyline id="SVGID_6_" opacity="0.29" points="2151.1,1401.2 -661.3,1401.2 -661.3,-587.3 2151.1,-587.3 		"/>
	</defs>
	<clipPath id="SVGID_7_">
		<use xlink:href="#SVGID_6_"  overflow="visible"/>
	</clipPath>
	<polygon clip-path="url(#SVGID_7_)" fill-rule="evenodd" clip-rule="evenodd" fill="#FFFFFF" points="-59.6,407.9 -59.6,524.6 
		67.4,524.6 67.4,384.4 -91.3,225.7 -253.3,225.6 -275.9,225.5 -275.8,10 -253.5,10 283.2,10 283.2,32.2 283.2,203.7 283.2,225.8 
		261.1,225.8 127.4,225.8 127.4,237 90,237 60.7,237 60.7,209.6 60.7,170.4 127.4,170.4 127.4,181.5 238.9,181.5 238.9,54.3 
		-231.1,54.3 -231.4,181.6 -81.9,181.6 -72.6,181.7 -66.3,188 105.2,359.5 111.7,366 111.7,375.2 111.7,546.7 111.7,568.9 
		89.6,568.9 -81.9,568.9 -104.3,568.9 -103.8,407.9 -115,407.9 -115,341.3 -48.3,341.3 -48.3,407.9 	"/>
</g>
<g opacity="0.29">
	<defs>
		<polyline id="SVGID_8_" opacity="0.29" points="4762.3,2204.3 -222.9,2204.3 -222.9,-1320.6 4762.3,-1320.6 		"/>
	</defs>
	<clipPath id="SVGID_9_">
		<use xlink:href="#SVGID_8_"  overflow="visible"/>
	</clipPath>
	<polygon clip-path="url(#SVGID_9_)" fill-rule="evenodd" clip-rule="evenodd" fill="#FFFFFF" points="843.7,443.6 843.7,650.3 
		1068.8,650.3 1068.8,401.8 787.6,120.5 500.4,120.4 460.3,120.1 460.5,-261.8 500.1,-261.8 1451.4,-261.8 1451.4,-222.5 
		1451.4,81.5 1451.4,120.7 1412.1,120.7 1175.1,120.7 1175.1,140.5 1108.9,140.5 1057,140.5 1057,91.9 1057,22.4 1175.1,22.4 
		1175.1,42.2 1372.9,42.2 1372.9,-183.3 539.6,-183.3 539.2,42.4 804.2,42.4 820.6,42.5 831.8,53.7 1135.9,357.8 1147.4,369.3 
		1147.4,385.5 1147.4,689.5 1147.4,728.8 1108.1,728.8 804.1,728.8 764.5,728.8 765.3,443.6 745.5,443.6 745.5,325.4 863.6,325.4 
		863.6,443.6 	"/>
</g>
</svg>
