<?xml version="1.0" encoding="utf-8"?>
<!-- Generator: Adobe Illustrator 18.0.0, SVG Export Plug-In . SVG Version: 6.00 Build 0)  -->
<!DOCTYPE svg PUBLIC "-//W3C//DTD SVG 1.1//EN" "http://www.w3.org/Graphics/SVG/1.1/DTD/svg11.dtd">
<svg version="1.1" id="Capa_1" xmlns="http://www.w3.org/2000/svg" xmlns:xlink="http://www.w3.org/1999/xlink" x="0px" y="0px"
	 viewBox="0 0 1920 1200" enable-background="new 0 0 1920 1200" xml:space="preserve">
<rect width="1920" height="1200"/>
<g>
	<defs>
		<polygon id="SVGID_1_" points="1224.4,391.9 1216.4,391.9 1216.4,469.6 1224.5,469.6 1282.9,469.6 1340.1,526.8 1340.1,577.3 
			1294.3,577.3 1294.3,535.3 1298.4,535.3 1298.4,511.3 1274.3,511.3 1274.3,535.3 1278.4,535.3 1278.2,593.3 1286.3,593.3 
			1348.1,593.3 1356,593.3 1356,585.3 1356,523.5 1356,520.2 1353.7,517.9 1291.9,456.1 1289.6,453.8 1286.3,453.8 1232.4,453.8 
			1232.5,407.9 1401.9,407.9 1401.9,453.7 1361.7,453.7 1361.7,449.7 1337.7,449.7 1337.7,463.8 1337.7,473.7 1348.2,473.7 
			1361.7,473.7 1361.7,469.7 1409.9,469.7 1417.8,469.7 1417.8,461.7 1417.8,399.9 1417.8,391.9 		"/>
	</defs>
	<linearGradient id="SVGID_2_" gradientUnits="userSpaceOnUse" x1="1231.8658" y1="376.4543" x2="1402.3748" y2="546.9632">
		<stop  offset="0" style="stop-color:#06F5CA"/>
		<stop  offset="0.1838" style="stop-color:#19D5D1"/>
		<stop  offset="0.5882" style="stop-color:#4A84E3"/>
		<stop  offset="1" style="stop-color:#7F2CF6"/>
	</linearGradient>
	<use xlink:href="#SVGID_1_"  overflow="visible" fill="url(#SVGID_2_)"/>
	<clipPath id="SVGID_3_">
		<use xlink:href="#SVGID_1_"  overflow="visible"/>
	</clipPath>
	<linearGradient id="SVGID_4_" gradientUnits="userSpaceOnUse" x1="1216.3947" y1="391.8989" x2="1417.8193" y2="593.3235">
		<stop  offset="0" style="stop-color:#06F5CA"/>
		<stop  offset="0.1838" style="stop-color:#19D5D1"/>
		<stop  offset="0.5882" style="stop-color:#4A84E3"/>
		<stop  offset="1" style="stop-color:#7F2CF6"/>
	</linearGradient>
	<polygon clip-path="url(#SVGID_3_)" fill="url(#SVGID_4_)" points="1317.1,291.2 1518.5,492.6 1317.1,694 1115.7,492.6 	"/>
</g>
<g>
	<path fill="#22EF00" d="M624.2,483.1c-1.3-0.9-2.5-1.7-3.7-2.5c-0.7-0.5-1.3-0.7-2.1-0.7c-8.5,0-17.1,0-25.6,0c-16.5,0-33,0-49.5,0
		c-0.4,0-0.8,0-1.5,0c0.3-0.5,0.6-0.8,0.8-1.1c6.4-8.7,13.7-16.5,21.9-23.6c10.1-8.6,21-16.1,32.8-22.1c8.7-4.5,17.8-8.1,27.2-11
		c6.5-2,13-3.5,19.7-4.5c4.3-0.6,8.6-0.9,12.8-1.3c4.1-0.4,8.1-0.2,12.2,0c6.8,0.4,13.6,1.4,20.2,3.3c7.5,2,14.5,5.1,20.8,9.6
		c9.6,6.9,16.1,16,18.9,27.6c1.1,4.4,1.5,8.9,1.5,13.4c0,0.4-0.1,0.8-0.1,1.4c-0.9,0-1.6,0-2.4,0c-7.5,0-15,0-22.5,0.1
		c-13.6,0.1-27.2,0.1-40.7,0.2c-0.9,0-1.6-0.2-2.2-0.7c-0.8-0.6-1.6-1.2-2.5-1.7c-0.5-0.3-0.8-0.7-1-1.2c-1.3-3.4-4.3-5.3-7.9-5
		c-3.6,0.3-6.6,3.3-6.9,6.8c-0.4,4.6,2.9,7.5,5.8,8.2c3.3,0.7,6.3-0.5,8.2-3.3c0.2-0.3,0.3-0.5,0.5-0.8c1.3,0.9,2.6,1.8,3.9,2.7
		c0.5,0.3,1,0.5,1.6,0.5c6.2,0,12.5-0.1,18.7-0.1c15.2-0.1,30.3-0.1,45.5-0.2c0.4,0,0.8,0,1.2,0c0,1.6-0.4,3.1-0.6,4.6
		c-2,10.4-6.2,20-11.7,29.1c-5.4,8.9-12,16.9-19.4,24.3c-4.7,4.7-9.6,9-14.9,13c-12.1,9.1-25.1,16.7-39.2,22.3
		c-10,4-20.2,7.1-30.8,8.9c-9.3,1.7-18.6,2.6-28,2.1c-12.4-0.5-24-3.7-34.8-9.9c-6.7-3.9-12.4-8.9-16.9-15.2
		c-4.5-6.4-7.1-13.6-7.8-21.4c-0.5-5.4-0.2-10.8,0.5-16.3c0.9-7.6,2.8-15,5.9-22c1.5-3.5,3.2-6.8,5.2-10c0.2-0.4,0.5-0.7,0.7-1.1
		c0.5,0,0.9,0,1.3,0c8.5,0,17.1,0,25.6,0c13.9,0,27.8,0,41.7,0c4,0,7.9,0,11.9,0c0.6,0,1.1,0.1,1.6,0.5c0.5,0.4,0.9,0.7,1.4,1
		c1.2,0.8,2.1,1.6,2.7,3c1.1,2.6,4,4.6,7.8,4.1c3-0.4,5.7-2.7,6.5-5.8c0.7-3-0.5-6.3-3.1-8.1c-3.4-2.4-8.3-1.5-10.6,2
		C624.6,482.4,624.4,482.7,624.2,483.1z M607,515.1c0.8-0.2,1.4-0.3,2-0.4c1.7-0.3,3.5-0.5,5.2-0.1c2.2,0.5,3.4,1.9,3.3,4.1
		c-0.1,1-0.3,2.1-0.6,3.1c-2,6.2-4,12.5-6,18.7c-2.4,7.5-4.8,14.9-6.3,22.6c-0.4,2.3-0.9,4.7-0.8,7c0.1,2.9,1.9,5.2,4.7,5.9
		c1.7,0.5,3.5,0.4,5.2-0.1c2.7-0.8,5-2.3,7-4.2c2.9-2.9,5.8-5.8,8.6-8.8c0.9-0.9,1.7-2,2.6-3.1c-0.8-0.8-1.6-1.5-2.5-2.3
		c-0.3,0.4-0.5,0.8-0.8,1.1c-2.8,2.8-5.6,5.6-8.4,8.4c-0.5,0.5-1.1,1-1.7,1.4c-1.3,0.8-2,0.5-2-1c0-1.1,0.1-2.2,0.4-3.2
		c0.9-3.8,1.8-7.5,2.8-11.3c3.8-14.4,7.6-28.8,11.3-43.2c0.1-0.3,0.1-0.6,0.2-1.1c-8.1,1.3-16.1,2.6-24.1,3.9
		C607,513.3,607,514.1,607,515.1z"/>
	<path fill="#22EF00" d="M584.2,616.2c-17.4-0.9-33.7-5.3-48.3-14.9c-19.6-12.8-31.9-30.6-37.4-53.3c-1.9-7.8-2.4-15.8-2.2-23.8
		c0.3-9.8,1.6-19.5,4.1-29.1c2.4-9.5,6-18.7,10.6-27.4c0.1-0.2,0.2-0.4,0.3-0.6c0-0.1,0.1-0.1,0.3-0.3c0.1,0.3,0.2,0.6,0.2,0.8
		c1.4,12,3.5,23.9,6.6,35.5c1.5,5.7,3.3,11.4,5.3,17c0.3,0.7,0.4,1.5,0.3,2.3c-0.3,3.4-0.5,6.9-0.3,10.3c0.5,9.3,3.5,17.7,8.9,25.3
		c5,7,11.4,12.3,18.9,16.4c0.9,0.5,1.6,1.1,2.1,1.9c8.4,11.9,17.5,23.2,27.2,34.1c1.6,1.8,3.3,3.6,4.9,5.5
		C585.1,616,584.7,616.1,584.2,616.2z"/>
	<path fill="#22EF00" d="M583.1,583.1c2.7,0,5.2,0,7.6,0c12.1-0.3,23.9-2,35.6-5.2c0.7-0.2,1.2-0.1,1.8,0.3
		c11.2,7.4,22.9,14,34.8,20.1c0.4,0.2,0.7,0.4,1.3,0.7c-0.3,0.2-0.5,0.3-0.8,0.4c-12.5,6-25.4,10.5-38.9,13.3
		c-4.1,0.8-8.2,1.4-12.2,2.2c-0.7,0.1-1.2-0.1-1.6-0.6c-4.8-5.2-9.7-10.4-14.4-15.7c-4.3-4.8-8.4-9.8-12.5-14.7
		C583.5,583.7,583.4,583.4,583.1,583.1z"/>
	<path fill="#22EF00" d="M534.5,487.6c-0.8-4.4-1.6-8.8-2.2-13.3c-0.8-5.4-1.4-10.9-2.1-16.4c-0.4-3.9-0.7-7.7-1-11.6
		c-0.1-1.2-0.1-2.3-0.3-3.5c-0.1-0.7,0.1-1.1,0.5-1.6c3.6-3.9,7.4-7.7,11.3-11.2c9-8,18.9-14.7,29.5-20.3c0.2-0.1,0.5-0.2,0.9-0.4
		c-0.1,0.4-0.1,0.7-0.1,1c-1.7,9.4-3.4,18.8-5,28.1c-0.8,4.5-1.3,9-1.8,13.5c-0.1,0.7-0.5,1-0.9,1.4c-4.9,4.2-9.4,8.6-13.7,13.5
		c-5.5,6.2-10.3,12.9-14.4,20.1c-0.1,0.2-0.3,0.4-0.4,0.7C534.7,487.6,534.6,487.6,534.5,487.6z"/>
	<path fill="#22EF00" d="M691.2,418c3.1-3.7,6-7.2,8.9-10.7c33.2,19.4,50.7,58.5,42.5,98.8c-1.3,0.4-17.9-0.5-19.7-1
		c0.1-0.3,0.3-0.6,0.4-0.9c3.7-7.2,6.5-14.7,8.1-22.6c1.8-9.4,1.9-18.7-0.7-28c-3.2-11.5-10-20.4-20-26.9c-5.9-3.8-12.3-6.4-19-8.3
		C691.7,418.2,691.6,418.1,691.2,418z"/>
	<path fill="#22EF00" d="M619,393.4c-0.1,0.5-0.2,0.8-0.3,1.1c-2.5,8.2-4.7,16.5-6.4,24.9c-0.3,1.4-0.6,2.9-0.8,4.3
		c-0.1,0.7-0.3,1.1-1,1.3c-10.1,4-19.8,9-29,14.9c-0.2,0.2-0.5,0.3-0.9,0.5c2-12.9,4.6-25.6,7.1-38.5
		C597.6,398,608.1,395.2,619,393.4z"/>
	<path fill="#22EF00" d="M679.9,590.3c-11.9-5.8-23.4-11.8-34.8-18.8c9.2-3.8,17.9-8.2,26.2-13.4c9.7,6,19.9,11.1,30.5,15.6
		C695,580,687.7,585.4,679.9,590.3z"/>
	<path fill="#22EF00" d="M718.2,513.2c7.6,0.5,14.9,0.9,22.5,1.4c-2.2,7.8-5.4,15.4-9.3,22.6c-8.8-2-17.4-4.3-26-7.3
		C710.1,524.6,714.4,519,718.2,513.2z"/>
	<path fill="#22EF00" d="M633.9,391.7c7.8-0.5,15.5-0.2,23.3,0.8c-0.2,0.4-0.3,0.6-0.4,0.9c-3.9,7-7.6,14.1-10.9,21.4
		c-0.2,0.4-0.4,0.8-1,0.8c-6.2,0.8-12.2,2.2-18.2,3.9c-0.1,0-0.3,0-0.6,0.1C628.2,410.1,630.9,400.9,633.9,391.7z"/>
	<path fill="#22EF00" d="M724.7,547.8c-1,2.2-9.7,13.2-12.3,15.5c-4.2-1.1-24.6-10.9-28.5-13.6c4.1-3.5,8.2-6.9,12.4-10.4
		c4.6,1.5,9.3,3.2,14.1,4.6C715.2,545.3,720,546.5,724.7,547.8z"/>
	<path fill="#22EF00" d="M692.8,403.1c-3.6,4.4-7.2,8.7-10.7,13c-7.6-1.2-15.2-1.7-22.8-1.6c0.1-1.3,8.2-16.7,10.4-19.7
		C677.6,396.6,685.3,399.3,692.8,403.1z"/>
	<path fill="#22EF00" d="M656.4,470.6c0-2.4-1.9-4.4-4.3-4.4c-2.4,0-4.3,2-4.3,4.4v0c0,2.4,1.9,4.4,4.3,4.4
		C654.4,475,656.4,473,656.4,470.6"/>
	<path fill="#22EF00" d="M635.7,486.3c0-2.4-1.9-4.4-4.3-4.4c-2.4,0-4.3,2-4.3,4.4v0c0,2.4,1.9,4.4,4.3,4.4
		C633.8,490.7,635.7,488.7,635.7,486.3"/>
</g>
<polygon fill="#FFFFFF" points="968,468.3 968,498.7 968,528.9 1006.4,498.7 "/>
<path fill="#A8A8A8" d="M1024.7,495.2"/>
<g>
	<path fill="#FFFFFF" d="M573.9,663.4h5.3l8,22.5h-5.1l-1.5-4.6h-8.3l-1.5,4.6h-4.9L573.9,663.4z M573.6,677.4h5.8l-2.8-8.8
		L573.6,677.4z"/>
	<path fill="#FFFFFF" d="M590,663.4h4.9l8.9,15.7v-15.7h4.4v22.5h-4.7l-9.2-15.9v15.9H590V663.4z"/>
	<path fill="#FFFFFF" d="M629,663.4v4h-6.7v18.5h-4.7v-18.5h-6.8v-4H629z"/>
	<path fill="#FFFFFF" d="M648.3,667.4h-11.9v4.8h10.9v3.9h-10.9v5.8h12.4v4h-17v-22.5h16.5V667.4z"/>
	<path fill="#FFFFFF" d="M655.9,679c0.1,1,0.4,1.8,0.9,2.3c0.8,0.9,2.1,1.4,4,1.4c1.1,0,2.1-0.1,2.8-0.4c1.3-0.5,2-1.3,2-2.6
		c0-0.7-0.3-1.3-1-1.7c-0.7-0.4-1.7-0.7-3.1-1.1l-2.4-0.5c-2.4-0.5-4-1.1-4.9-1.7c-1.5-1-2.3-2.7-2.3-4.9c0-2,0.7-3.7,2.2-5
		c1.5-1.3,3.7-2,6.5-2c2.4,0,4.4,0.6,6.1,1.9c1.7,1.3,2.6,3.1,2.7,5.5h-4.5c-0.1-1.4-0.7-2.3-1.8-2.9c-0.8-0.4-1.7-0.6-2.8-0.6
		c-1.2,0-2.2,0.2-3,0.7s-1.1,1.2-1.1,2c0,0.8,0.4,1.4,1.1,1.8c0.5,0.3,1.5,0.6,3,0.9l3.9,0.9c1.7,0.4,3,1,3.9,1.6
		c1.3,1.1,2,2.6,2,4.6c0,2.1-0.8,3.8-2.4,5.1c-1.6,1.4-3.8,2-6.7,2c-3,0-5.3-0.7-7-2c-1.7-1.3-2.5-3.2-2.5-5.5H655.9z"/>
</g>
<g>
	<path fill="#FFFFFF" d="M1270.3,663.4h5.3l8,22.5h-5.1l-1.5-4.6h-8.3l-1.5,4.6h-4.9L1270.3,663.4z M1269.9,677.4h5.8l-2.8-8.8
		L1269.9,677.4z"/>
	<path fill="#FFFFFF" d="M1286.3,685.9v-22.5h4.7v8.6h8.7v-8.6h4.7v22.5h-4.7v-10h-8.7v10H1286.3z"/>
	<path fill="#FFFFFF" d="M1326.2,683.9c-1.7,1.7-4.2,2.6-7.4,2.6s-5.7-0.9-7.4-2.6c-2.3-2.1-3.4-5.2-3.4-9.3c0-4.1,1.1-7.2,3.4-9.3
		c1.7-1.7,4.2-2.6,7.4-2.6s5.7,0.9,7.4,2.6c2.3,2.1,3.4,5.2,3.4,9.3C1329.6,678.7,1328.5,681.8,1326.2,683.9z M1323.3,680.5
		c1.1-1.4,1.6-3.3,1.6-5.9c0-2.5-0.5-4.5-1.6-5.8c-1.1-1.4-2.6-2.1-4.4-2.1s-3.3,0.7-4.5,2.1c-1.1,1.4-1.7,3.3-1.7,5.9
		s0.6,4.5,1.7,5.9c1.1,1.4,2.6,2.1,4.5,2.1S1322.2,681.9,1323.3,680.5z"/>
	<path fill="#FFFFFF" d="M1347.6,664c0.8,0.4,1.5,0.9,2.1,1.6c0.5,0.6,0.9,1.2,1.1,1.9s0.4,1.5,0.4,2.4c0,1.1-0.3,2.1-0.8,3.1
		c-0.5,1-1.4,1.8-2.7,2.2c1,0.4,1.8,1,2.2,1.8c0.4,0.8,0.6,1.9,0.6,3.5v1.5c0,1,0,1.7,0.1,2.1c0.1,0.6,0.4,1,0.9,1.3v0.6h-5.2
		c-0.1-0.5-0.2-0.9-0.3-1.2c-0.1-0.6-0.2-1.3-0.2-1.9l0-2.1c0-1.4-0.3-2.4-0.7-2.9c-0.5-0.5-1.4-0.7-2.7-0.7h-4.6v8.8h-4.6v-22.5
		h10.8C1345.6,663.5,1346.8,663.7,1347.6,664z M1337.9,667.4v6h5.1c1,0,1.8-0.1,2.3-0.4c0.9-0.4,1.3-1.3,1.3-2.5
		c0-1.4-0.4-2.3-1.3-2.7c-0.5-0.3-1.2-0.4-2.2-0.4H1337.9z"/>
	<path fill="#FFFFFF" d="M1362.2,663.4h5.3l8,22.5h-5.1l-1.5-4.6h-8.3l-1.5,4.6h-4.9L1362.2,663.4z M1361.9,677.4h5.8l-2.8-8.8
		L1361.9,677.4z"/>
</g>
</svg>
