<?xml version="1.0" encoding="utf-8"?>
<!-- Generator: Adobe Illustrator 18.0.0, SVG Export Plug-In . SVG Version: 6.00 Build 0)  -->
<!DOCTYPE svg PUBLIC "-//W3C//DTD SVG 1.1//EN" "http://www.w3.org/Graphics/SVG/1.1/DTD/svg11.dtd" [
	<!ENTITY ns_extend "http://ns.adobe.com/Extensibility/1.0/">
	<!ENTITY ns_ai "http://ns.adobe.com/AdobeIllustrator/10.0/">
	<!ENTITY ns_graphs "http://ns.adobe.com/Graphs/1.0/">
	<!ENTITY ns_vars "http://ns.adobe.com/Variables/1.0/">
	<!ENTITY ns_imrep "http://ns.adobe.com/ImageReplacement/1.0/">
	<!ENTITY ns_sfw "http://ns.adobe.com/SaveForWeb/1.0/">
	<!ENTITY ns_custom "http://ns.adobe.com/GenericCustomNamespace/1.0/">
	<!ENTITY ns_adobe_xpath "http://ns.adobe.com/XPath/1.0/">
]>
<svg version="1.1" id="Capa_1" xmlns:x="&ns_extend;" xmlns:i="&ns_ai;" xmlns:graph="&ns_graphs;"
	 xmlns="http://www.w3.org/2000/svg" xmlns:xlink="http://www.w3.org/1999/xlink" x="0px" y="0px" viewBox="0 0 1920 1200"
	 enable-background="new 0 0 1920 1200" xml:space="preserve">
<metadata>
	<sfw  xmlns="&ns_sfw;">
		<slices></slices>
		<sliceSourceBounds  width="1920" height="1200" y="0" x="0" bottomLeftOrigin="true"></sliceSourceBounds>
	</sfw>
</metadata>
<rect width="1920" height="1200"/>
<g>
	<g>
		
			<linearGradient id="SVGID_2_" gradientUnits="userSpaceOnUse" x1="1112.25" y1="823.55" x2="1282.75" y2="653.05" gradientTransform="matrix(1 0 0 -1 0 1200)">
			<stop  offset="0" style="stop-color:#06F5CA"/>
			<stop  offset="0.1838" style="stop-color:#19D5D1"/>
			<stop  offset="0.5882" style="stop-color:#4A84E3"/>
			<stop  offset="1" style="stop-color:#7F2CF6"/>
		</linearGradient>
		<polygon id="SVGID_1_" fill="url(#SVGID_2_)" points="1104.8,391.9 1096.8,391.9 1096.8,469.6 1104.9,469.6 1163.3,469.6 
			1220.5,526.8 1220.5,577.3 1174.7,577.3 1174.7,535.3 1178.8,535.3 1178.8,511.3 1154.7,511.3 1154.7,535.3 1158.8,535.3 
			1158.6,593.3 1166.7,593.3 1228.5,593.3 1236.4,593.3 1236.4,585.3 1236.4,523.5 1236.4,520.2 1234.1,517.9 1172.3,456.1 
			1170,453.8 1166.7,453.8 1112.8,453.8 1112.9,407.9 1282.3,407.9 1282.3,453.7 1242.1,453.7 1242.1,449.7 1218.1,449.7 
			1218.1,463.8 1218.1,473.7 1228.6,473.7 1242.1,473.7 1242.1,469.7 1290.3,469.7 1298.2,469.7 1298.2,461.7 1298.2,399.9 
			1298.2,391.9 		"/>
	</g>
	<g>
		<defs>
			<polygon id="SVGID_3_" points="1104.8,391.9 1096.8,391.9 1096.8,469.6 1104.9,469.6 1163.3,469.6 1220.5,526.8 1220.5,577.3 
				1174.7,577.3 1174.7,535.3 1178.8,535.3 1178.8,511.3 1154.7,511.3 1154.7,535.3 1158.8,535.3 1158.6,593.3 1166.7,593.3 
				1228.5,593.3 1236.4,593.3 1236.4,585.3 1236.4,523.5 1236.4,520.2 1234.1,517.9 1172.3,456.1 1170,453.8 1166.7,453.8 
				1112.8,453.8 1112.9,407.9 1282.3,407.9 1282.3,453.7 1242.1,453.7 1242.1,449.7 1218.1,449.7 1218.1,463.8 1218.1,473.7 
				1228.6,473.7 1242.1,473.7 1242.1,469.7 1290.3,469.7 1298.2,469.7 1298.2,461.7 1298.2,399.9 1298.2,391.9 			"/>
		</defs>
		<clipPath id="SVGID_4_">
			<use xlink:href="#SVGID_3_"  overflow="visible"/>
		</clipPath>
		
			<linearGradient id="SVGID_5_" gradientUnits="userSpaceOnUse" x1="1096.7999" y1="808.1" x2="1298.2" y2="606.7" gradientTransform="matrix(1 0 0 -1 0 1200)">
			<stop  offset="0" style="stop-color:#06F5CA"/>
			<stop  offset="0.1838" style="stop-color:#19D5D1"/>
			<stop  offset="0.5882" style="stop-color:#4A84E3"/>
			<stop  offset="1" style="stop-color:#7F2CF6"/>
		</linearGradient>
		<polygon clip-path="url(#SVGID_4_)" fill="url(#SVGID_5_)" points="1197.5,291.2 1398.9,492.6 1197.5,694 996.1,492.6 		"/>
	</g>
</g>
<g>
	<path fill="#22EF00" d="M738.7,483.1c-1.3-0.9-2.5-1.7-3.7-2.5c-0.7-0.5-1.3-0.7-2.1-0.7c-8.5,0-17.1,0-25.6,0c-16.5,0-33,0-49.5,0
		c-0.4,0-0.8,0-1.5,0c0.3-0.5,0.6-0.8,0.8-1.1c6.4-8.7,13.7-16.5,21.9-23.6c10.1-8.6,21-16.1,32.8-22.1c8.7-4.5,17.8-8.1,27.2-11
		c6.5-2,13-3.5,19.7-4.5c4.3-0.6,8.6-0.9,12.8-1.3c4.1-0.4,8.1-0.2,12.2,0c6.8,0.4,13.6,1.4,20.2,3.3c7.5,2,14.5,5.1,20.8,9.6
		c9.6,6.9,16.1,16,18.9,27.6c1.1,4.4,1.5,8.9,1.5,13.4c0,0.4-0.1,0.8-0.1,1.4c-0.9,0-1.6,0-2.4,0c-7.5,0-15,0-22.5,0.1
		c-13.6,0.1-27.2,0.1-40.7,0.2c-0.9,0-1.6-0.2-2.2-0.7c-0.8-0.6-1.6-1.2-2.5-1.7c-0.5-0.3-0.8-0.7-1-1.2c-1.3-3.4-4.3-5.3-7.9-5
		c-3.6,0.3-6.6,3.3-6.9,6.8c-0.4,4.6,2.9,7.5,5.8,8.2c3.3,0.7,6.3-0.5,8.2-3.3c0.2-0.3,0.3-0.5,0.5-0.8c1.3,0.9,2.6,1.8,3.9,2.7
		c0.5,0.3,1,0.5,1.6,0.5c6.2,0,12.5-0.1,18.7-0.1c15.2-0.1,30.3-0.1,45.5-0.2c0.4,0,0.8,0,1.2,0c0,1.6-0.4,3.1-0.6,4.6
		c-2,10.4-6.2,20-11.7,29.1c-5.4,8.9-12,16.9-19.4,24.3c-4.7,4.7-9.6,9-14.9,13c-12.1,9.1-25.1,16.7-39.2,22.3
		c-10,4-20.2,7.1-30.8,8.9c-9.3,1.7-18.6,2.6-28,2.1c-12.4-0.5-24-3.7-34.8-9.9c-6.7-3.9-12.4-8.9-16.9-15.2
		c-4.5-6.4-7.1-13.6-7.8-21.4c-0.5-5.4-0.2-10.8,0.5-16.3c0.9-7.6,2.8-15,5.9-22c1.5-3.5,3.2-6.8,5.2-10c0.2-0.4,0.5-0.7,0.7-1.1
		c0.5,0,0.9,0,1.3,0c8.5,0,17.1,0,25.6,0c13.9,0,27.8,0,41.7,0c4,0,7.9,0,11.9,0c0.6,0,1.1,0.1,1.6,0.5s0.9,0.7,1.4,1
		c1.2,0.8,2.1,1.6,2.7,3c1.1,2.6,4,4.6,7.8,4.1c3-0.4,5.7-2.7,6.5-5.8c0.7-3-0.5-6.3-3.1-8.1c-3.4-2.4-8.3-1.5-10.6,2
		C739.1,482.4,738.9,482.7,738.7,483.1z M721.5,515.1c0.8-0.2,1.4-0.3,2-0.4c1.7-0.3,3.5-0.5,5.2-0.1c2.2,0.5,3.4,1.9,3.3,4.1
		c-0.1,1-0.3,2.1-0.6,3.1c-2,6.2-4,12.5-6,18.7c-2.4,7.5-4.8,14.9-6.3,22.6c-0.4,2.3-0.9,4.7-0.8,7c0.1,2.9,1.9,5.2,4.7,5.9
		c1.7,0.5,3.5,0.4,5.2-0.1c2.7-0.8,5-2.3,7-4.2c2.9-2.9,5.8-5.8,8.6-8.8c0.9-0.9,1.7-2,2.6-3.1c-0.8-0.8-1.6-1.5-2.5-2.3
		c-0.3,0.4-0.5,0.8-0.8,1.1c-2.8,2.8-5.6,5.6-8.4,8.4c-0.5,0.5-1.1,1-1.7,1.4c-1.3,0.8-2,0.5-2-1c0-1.1,0.1-2.2,0.4-3.2
		c0.9-3.8,1.8-7.5,2.8-11.3c3.8-14.4,7.6-28.8,11.3-43.2c0.1-0.3,0.1-0.6,0.2-1.1c-8.1,1.3-16.1,2.6-24.1,3.9
		C721.5,513.3,721.5,514.1,721.5,515.1z"/>
	<path fill="#22EF00" d="M698.7,616.2c-17.4-0.9-33.7-5.3-48.3-14.9c-19.6-12.8-31.9-30.6-37.4-53.3c-1.9-7.8-2.4-15.8-2.2-23.8
		c0.3-9.8,1.6-19.5,4.1-29.1c2.4-9.5,6-18.7,10.6-27.4c0.1-0.2,0.2-0.4,0.3-0.6c0-0.1,0.1-0.1,0.3-0.3c0.1,0.3,0.2,0.6,0.2,0.8
		c1.4,12,3.5,23.9,6.6,35.5c1.5,5.7,3.3,11.4,5.3,17c0.3,0.7,0.4,1.5,0.3,2.3c-0.3,3.4-0.5,6.9-0.3,10.3c0.5,9.3,3.5,17.7,8.9,25.3
		c5,7,11.4,12.3,18.9,16.4c0.9,0.5,1.6,1.1,2.1,1.9c8.4,11.9,17.5,23.2,27.2,34.1c1.6,1.8,3.3,3.6,4.9,5.5
		C699.6,616,699.2,616.1,698.7,616.2z"/>
	<path fill="#22EF00" d="M697.6,583.1c2.7,0,5.2,0,7.6,0c12.1-0.3,23.9-2,35.6-5.2c0.7-0.2,1.2-0.1,1.8,0.3
		c11.2,7.4,22.9,14,34.8,20.1c0.4,0.2,0.7,0.4,1.3,0.7c-0.3,0.2-0.5,0.3-0.8,0.4c-12.5,6-25.4,10.5-38.9,13.3
		c-4.1,0.8-8.2,1.4-12.2,2.2c-0.7,0.1-1.2-0.1-1.6-0.6c-4.8-5.2-9.7-10.4-14.4-15.7c-4.3-4.8-8.4-9.8-12.5-14.7
		C698,583.7,697.9,583.4,697.6,583.1z"/>
	<path fill="#22EF00" d="M649,487.6c-0.8-4.4-1.6-8.8-2.2-13.3c-0.8-5.4-1.4-10.9-2.1-16.4c-0.4-3.9-0.7-7.7-1-11.6
		c-0.1-1.2-0.1-2.3-0.3-3.5c-0.1-0.7,0.1-1.1,0.5-1.6c3.6-3.9,7.4-7.7,11.3-11.2c9-8,18.9-14.7,29.5-20.3c0.2-0.1,0.5-0.2,0.9-0.4
		c-0.1,0.4-0.1,0.7-0.1,1c-1.7,9.4-3.4,18.8-5,28.1c-0.8,4.5-1.3,9-1.8,13.5c-0.1,0.7-0.5,1-0.9,1.4c-4.9,4.2-9.4,8.6-13.7,13.5
		c-5.5,6.2-10.3,12.9-14.4,20.1c-0.1,0.2-0.3,0.4-0.4,0.7C649.2,487.6,649.1,487.6,649,487.6z"/>
	<path fill="#22EF00" d="M805.7,418c3.1-3.7,6-7.2,8.9-10.7c33.2,19.4,50.7,58.5,42.5,98.8c-1.3,0.4-17.9-0.5-19.7-1
		c0.1-0.3,0.3-0.6,0.4-0.9c3.7-7.2,6.5-14.7,8.1-22.6c1.8-9.4,1.9-18.7-0.7-28c-3.2-11.5-10-20.4-20-26.9c-5.9-3.8-12.3-6.4-19-8.3
		C806.2,418.2,806.1,418.1,805.7,418z"/>
	<path fill="#22EF00" d="M733.5,393.4c-0.1,0.5-0.2,0.8-0.3,1.1c-2.5,8.2-4.7,16.5-6.4,24.9c-0.3,1.4-0.6,2.9-0.8,4.3
		c-0.1,0.7-0.3,1.1-1,1.3c-10.1,4-19.8,9-29,14.9c-0.2,0.2-0.5,0.3-0.9,0.5c2-12.9,4.6-25.6,7.1-38.5
		C712.1,398,722.6,395.2,733.5,393.4z"/>
	<path fill="#22EF00" d="M794.4,590.3c-11.9-5.8-23.4-11.8-34.8-18.8c9.2-3.8,17.9-8.2,26.2-13.4c9.7,6,19.9,11.1,30.5,15.6
		C809.5,580,802.2,585.4,794.4,590.3z"/>
	<path fill="#22EF00" d="M832.7,513.2c7.6,0.5,14.9,0.9,22.5,1.4c-2.2,7.8-5.4,15.4-9.3,22.6c-8.8-2-17.4-4.3-26-7.3
		C824.6,524.6,828.9,519,832.7,513.2z"/>
	<path fill="#22EF00" d="M748.4,391.7c7.8-0.5,15.5-0.2,23.3,0.8c-0.2,0.4-0.3,0.6-0.4,0.9c-3.9,7-7.6,14.1-10.9,21.4
		c-0.2,0.4-0.4,0.8-1,0.8c-6.2,0.8-12.2,2.2-18.2,3.9c-0.1,0-0.3,0-0.6,0.1C742.7,410.1,745.4,400.9,748.4,391.7z"/>
	<path fill="#22EF00" d="M839.2,547.8c-1,2.2-9.7,13.2-12.3,15.5c-4.2-1.1-24.6-10.9-28.5-13.6c4.1-3.5,8.2-6.9,12.4-10.4
		c4.6,1.5,9.3,3.2,14.1,4.6C829.7,545.3,834.5,546.5,839.2,547.8z"/>
	<path fill="#22EF00" d="M807.3,403.1c-3.6,4.4-7.2,8.7-10.7,13c-7.6-1.2-15.2-1.7-22.8-1.6c0.1-1.3,8.2-16.7,10.4-19.7
		C792.1,396.6,799.8,399.3,807.3,403.1z"/>
	<path fill="#22EF00" d="M770.9,470.6c0-2.4-1.9-4.4-4.3-4.4c-2.4,0-4.3,2-4.3,4.4l0,0c0,2.4,1.9,4.4,4.3,4.4
		C768.9,475,770.9,473,770.9,470.6"/>
	<path fill="#22EF00" d="M750.2,486.3c0-2.4-1.9-4.4-4.3-4.4c-2.4,0-4.3,2-4.3,4.4l0,0c0,2.4,1.9,4.4,4.3,4.4
		C748.3,490.7,750.2,488.7,750.2,486.3"/>
</g>
<polygon fill="#FFFFFF" points="968,468.3 968,498.7 968,528.9 1006.4,498.7 "/>
<path fill="#A8A8A8" d="M1024.7,495.2"/>
<g>
	<path fill="#FFFFFF" d="M688.4,663.4h5.3l8,22.5h-5.1l-1.5-4.6h-8.3l-1.5,4.6h-4.9L688.4,663.4z M688.1,677.4h5.8l-2.8-8.8
		L688.1,677.4z"/>
	<path fill="#FFFFFF" d="M704.5,663.4h4.9l8.9,15.7v-15.7h4.4v22.5H718l-9.2-15.9v15.9h-4.3V663.4z"/>
	<path fill="#FFFFFF" d="M743.5,663.4v4h-6.7v18.5h-4.7v-18.5h-6.8v-4H743.5z"/>
	<path fill="#FFFFFF" d="M762.8,667.4h-11.9v4.8h10.9v3.9h-10.9v5.8h12.4v4h-17v-22.5h16.5V667.4z"/>
	<path fill="#FFFFFF" d="M770.4,679c0.1,1,0.4,1.8,0.9,2.3c0.8,0.9,2.1,1.4,4,1.4c1.1,0,2.1-0.1,2.8-0.4c1.3-0.5,2-1.3,2-2.6
		c0-0.7-0.3-1.3-1-1.7s-1.7-0.7-3.1-1.1l-2.4-0.5c-2.4-0.5-4-1.1-4.9-1.7c-1.5-1-2.3-2.7-2.3-4.9c0-2,0.7-3.7,2.2-5s3.7-2,6.5-2
		c2.4,0,4.4,0.6,6.1,1.9c1.7,1.3,2.6,3.1,2.7,5.5h-4.5c-0.1-1.4-0.7-2.3-1.8-2.9c-0.8-0.4-1.7-0.6-2.8-0.6c-1.2,0-2.2,0.2-3,0.7
		s-1.1,1.2-1.1,2s0.4,1.4,1.1,1.8c0.5,0.3,1.5,0.6,3,0.9l3.9,0.9c1.7,0.4,3,1,3.9,1.6c1.3,1.1,2,2.6,2,4.6c0,2.1-0.8,3.8-2.4,5.1
		c-1.6,1.4-3.8,2-6.7,2c-3,0-5.3-0.7-7-2s-2.5-3.2-2.5-5.5h4.4V679z"/>
</g>
<g>
	<path fill="#FFFFFF" d="M1150.7,663.4h5.3l8,22.5h-5.1l-1.5-4.6h-8.3l-1.5,4.6h-4.9L1150.7,663.4z M1150.3,677.4h5.8l-2.8-8.8
		L1150.3,677.4z"/>
	<path fill="#FFFFFF" d="M1166.7,685.9v-22.5h4.7v8.6h8.7v-8.6h4.7v22.5h-4.7v-10h-8.7v10H1166.7z"/>
	<path fill="#FFFFFF" d="M1206.6,683.9c-1.7,1.7-4.2,2.6-7.4,2.6c-3.2,0-5.7-0.9-7.4-2.6c-2.3-2.1-3.4-5.2-3.4-9.3s1.1-7.2,3.4-9.3
		c1.7-1.7,4.2-2.6,7.4-2.6c3.2,0,5.7,0.9,7.4,2.6c2.3,2.1,3.4,5.2,3.4,9.3S1208.9,681.8,1206.6,683.9z M1203.7,680.5
		c1.1-1.4,1.6-3.3,1.6-5.9c0-2.5-0.5-4.5-1.6-5.8c-1.1-1.4-2.6-2.1-4.4-2.1s-3.3,0.7-4.5,2.1c-1.1,1.4-1.7,3.3-1.7,5.9
		s0.6,4.5,1.7,5.9c1.1,1.4,2.6,2.1,4.5,2.1C1201.2,682.7,1202.6,681.9,1203.7,680.5z"/>
	<path fill="#FFFFFF" d="M1228,664c0.8,0.4,1.5,0.9,2.1,1.6c0.5,0.6,0.9,1.2,1.1,1.9s0.4,1.5,0.4,2.4c0,1.1-0.3,2.1-0.8,3.1
		s-1.4,1.8-2.7,2.2c1,0.4,1.8,1,2.2,1.8c0.4,0.8,0.6,1.9,0.6,3.5v1.5c0,1,0,1.7,0.1,2.1c0.1,0.6,0.4,1,0.9,1.3v0.6h-5.2
		c-0.1-0.5-0.2-0.9-0.3-1.2c-0.1-0.6-0.2-1.3-0.2-1.9v-2.1c0-1.4-0.3-2.4-0.7-2.9c-0.5-0.5-1.4-0.7-2.7-0.7h-4.6v8.8h-4.6v-22.5
		h10.8C1226,663.5,1227.2,663.7,1228,664z M1218.3,667.4v6h5.1c1,0,1.8-0.1,2.3-0.4c0.9-0.4,1.3-1.3,1.3-2.5c0-1.4-0.4-2.3-1.3-2.7
		c-0.5-0.3-1.2-0.4-2.2-0.4L1218.3,667.4L1218.3,667.4z"/>
	<path fill="#FFFFFF" d="M1242.6,663.4h5.3l8,22.5h-5.1l-1.5-4.6h-8.3l-1.5,4.6h-4.9L1242.6,663.4z M1242.3,677.4h5.8l-2.8-8.8
		L1242.3,677.4z"/>
</g>
</svg>
