<?xml version="1.0" encoding="utf-8"?>
<!-- Generator: Adobe Illustrator 18.0.0, SVG Export Plug-In . SVG Version: 6.00 Build 0)  -->
<!DOCTYPE svg PUBLIC "-//W3C//DTD SVG 1.1//EN" "http://www.w3.org/Graphics/SVG/1.1/DTD/svg11.dtd">
<svg version="1.1" id="Capa_1" xmlns="http://www.w3.org/2000/svg" xmlns:xlink="http://www.w3.org/1999/xlink" x="0px" y="0px"
	 viewBox="0 0 167.4 167.3" enable-background="new 0 0 167.4 167.3" xml:space="preserve">
<polygon fill-rule="evenodd" clip-rule="evenodd" fill="#FFFFFF" points="220.9,63.7 241.4,63.7 241.4,116.1 254.3,116.1 
	254.3,63.7 274.8,63.7 274.8,51.2 220.9,51.2 "/>
<polygon fill-rule="evenodd" clip-rule="evenodd" fill="#FFFFFF" points="300.4,63.7 300.4,77.3 326.8,77.3 326.8,89.9 300.4,89.9 
	300.4,103.4 336.9,103.4 336.9,116.1 287.5,116.1 287.5,51.2 336.9,51.2 336.9,63.7 "/>
<g>
	<defs>
		<rect id="SVGID_1_" x="-115.4" y="-178.8" width="841.9" height="595.3"/>
	</defs>
	<clipPath id="SVGID_2_">
		<use xlink:href="#SVGID_1_"  overflow="visible"/>
	</clipPath>
	<path clip-path="url(#SVGID_2_)" fill-rule="evenodd" clip-rule="evenodd" fill="#FFFFFF" d="M356.4,59.5
		c-6.1,6.3-9.2,14.1-9.2,23.4c0,9.4,3,17.2,9.1,23.4c6.2,6.5,14.2,9.8,23.9,9.8c9.7,0,17.6-3.2,23.8-9.7c6-6.2,9.1-14,9.1-23.5
		c0-9.4-3-17.2-9.1-23.4c-6.2-6.5-14.1-9.7-23.8-9.7C370.5,49.8,362.6,53,356.4,59.5 M365.5,68.4c3.7-3.9,8.6-5.9,14.7-5.9
		c6,0,10.9,2,14.7,5.9c3.6,3.7,5.4,8.6,5.4,14.6c0,6-1.8,10.9-5.4,14.7c-3.7,3.9-8.6,5.8-14.7,5.8c-6.2,0-11.1-1.9-14.7-5.8
		c-3.6-3.8-5.4-8.7-5.4-14.7C360.1,77,361.9,72.1,365.5,68.4"/>
	<polygon clip-path="url(#SVGID_2_)" fill-rule="evenodd" clip-rule="evenodd" fill="#FFFFFF" points="421.1,51.2 421.1,63.7 
		441.6,63.7 441.6,116.1 454.5,116.1 454.5,63.7 475,63.7 475,51.2 	"/>
	<polygon clip-path="url(#SVGID_2_)" fill-rule="evenodd" clip-rule="evenodd" fill="#FFFFFF" points="537,63.7 500.5,63.7 
		500.5,77.3 527,77.3 527,89.9 500.5,89.9 500.5,103.4 537,103.4 537,116.1 487.6,116.1 487.6,51.2 537,51.2 	"/>
	<path clip-path="url(#SVGID_2_)" fill-rule="evenodd" clip-rule="evenodd" fill="#FFFFFF" d="M603,61.5c1.7,2.3,3.1,4.8,4.2,7.6
		l-11.4,5.2h-0.1l-0.8-1.8c-1.3-3-3.3-5.5-5.9-7.2c-2.7-1.8-5.8-2.7-9.3-2.7c-3.8,0-6.8,0.5-9.2,1.6c-2.4,1.1-4.4,2.5-6,4.2
		c-3.3,3.7-4.9,8.6-4.9,14.7c0,6.1,1.6,11,4.9,14.7c3.3,3.9,8.4,5.8,15.2,5.8c1.8,0,3.5-0.2,5-0.6c1.5-0.4,3-1.1,4.3-2
		c2.6-1.8,4.6-4.2,5.9-7.2l0.8-1.9h0.1l11.4,5.3c-1.1,2.8-2.5,5.3-4.2,7.6c-1.7,2.2-3.8,4.2-6.2,5.9c-5.3,3.8-11.6,5.7-18.7,5.7
		c-9.5,0-17.2-3.3-23.1-9.8c-5.6-6.3-8.4-14.1-8.4-23.4c0-9.3,2.8-17.1,8.4-23.3c5.9-6.5,13.6-9.8,23.1-9.8c7.2,0,13.4,1.9,18.7,5.8
		C599.3,57.2,601.3,59.2,603,61.5"/>
</g>
<g>
	<defs>
		<path id="SVGID_3_" d="M167.4,0v6.6V58v6.6h-6.6h-40v3.3h-11.2h-8.8v-8.2V48h19.9v3.3h33.4V13.3H13.4l-0.1,38.1l44.8,0l2.8,0
			l1.9,1.9l51.3,51.3l1.9,1.9v2.7v51.3v6.6h-6.6H58.1h-6.7l0.1-48.2h-3.3V99.2h19.9v19.9h-3.4l0,34.9h38v-42L55.3,64.6l-48.5,0
			l-6.8,0L0,0h6.7H167.4z"/>
	</defs>
	<use xlink:href="#SVGID_3_"  overflow="visible"/>
	<clipPath id="SVGID_4_">
		<use xlink:href="#SVGID_3_"  overflow="visible"/>
	</clipPath>
</g>
<text transform="matrix(1 0 0 1 497.6679 171.0169)" fill="#06F5CA" font-family="'ArialMT'" font-size="28.7521">Expertos </text>
<text transform="matrix(1 0 0 1 340.9687 199.7688)" fill="#06F5CA" font-family="'ArialMT'" font-size="28.7521">que lo hacen poisible</text>
</svg>
