<?xml version="1.0" encoding="utf-8"?>
<!-- Generator: Adobe Illustrator 18.0.0, SVG Export Plug-In . SVG Version: 6.00 Build 0)  -->
<!DOCTYPE svg PUBLIC "-//W3C//DTD SVG 1.1//EN" "http://www.w3.org/Graphics/SVG/1.1/DTD/svg11.dtd">
<svg version="1.1" id="Capa_1" xmlns="http://www.w3.org/2000/svg" xmlns:xlink="http://www.w3.org/1999/xlink" x="0px" y="0px"
	 viewBox="0.8 0 173.1 172.9" enable-background="new 0.8 0 173.1 172.9" xml:space="preserve">
<title>Scroll Down — Scroll</title>
<desc>Created with Sketch.</desc>
<g id="Desktop">
	<g id="Wise-Stone---Open" transform="translate(-873.000000, -994.000000)">
		<g id="Scroll" transform="translate(873.000000, 994.000000)">
			<path id="Scroll-Down-_x2014_-Scroll" fill="#FFFFFF" d="M89.4,3c0.2-2.4,2.9-3.1,5-2.9c2.3,0.2,4.2,1.4,4.5,3.7l-2.7,0.1
				C96,3,95.2,2.5,94,2.4c-1-0.1-1.8,0.1-1.8,0.8c-0.1,0.6,0.4,1,1.2,1.2l1.5,0.5c1.7,0.5,4,1.3,3.8,3.7c-0.2,2.5-2.8,3.4-5.1,3.2
				c-3-0.3-4.7-1.8-5-4.1l2.7-0.1c0.2,1.2,1.1,1.8,2.5,2c0.9,0.1,1.9-0.1,2-0.9c0.1-0.7-0.9-1.2-2-1.5l-1.4-0.4
				C90.8,6,89.2,5.1,89.4,3z M108.9,10.1l2.5,1.1c-1,2.3-3.5,3.3-6.3,2.6c-3.5-0.9-5-3.6-4-7.1c0.9-3.5,3.7-5.1,7.1-4.2
				c2.8,0.7,4.3,2.9,4.1,5.3l-2.7-0.3c0.1-1.6-0.8-2.5-2.1-2.9c-1.5-0.4-3.1,0.4-3.7,2.7c-0.6,2.3,0.3,3.8,1.8,4.2
				C106.7,11.9,108.1,11.7,108.9,10.1z M118.2,18.3l-0.6-4.8l-1.6-0.7l-1.7,3.8l-2.5-1.1l4.6-10.3l3.9,1.7c2.7,1.2,4.5,2.7,3.3,5.3
				c-0.7,1.6-1.9,2.1-3.3,2l0.7,5.3L118.2,18.3z M119.5,9.2L118,8.5l-1,2.2l1.5,0.7c1.2,0.5,2.1,0.8,2.5-0.2
				C121.5,10.2,120.7,9.7,119.5,9.2z M132.5,20.1c1.3-2,0.7-3.7-0.7-4.6c-1.4-0.9-3.2-0.7-4.5,1.3s-0.8,3.8,0.6,4.7
				C129.4,22.4,131.2,22.1,132.5,20.1z M134.9,21.6c-2,3-5.2,3.6-8.2,1.7c-3-1.9-3.8-5.1-1.8-8.2c2-3.1,5.2-3.6,8.1-1.7
				C136,15.4,136.9,18.6,134.9,21.6z M142.7,20.7l-5.8,6.7l4.2,3.6l-1.6,1.8l-6.2-5.4l7.4-8.5L142.7,20.7z M150.7,28.3l-6.6,6
				l3.7,4.1L146,40l-5.5-6.1l8.3-7.6L150.7,28.3z M159.8,51.3c2.7-1.4,1.9-3.4,0.9-5.2l-0.3-0.5l-5.7,3.1l0.3,0.5
				C155.9,51,157.2,52.7,159.8,51.3z M161.3,42.1l1.6,2.9c1.8,3.3,2.2,6.8-1.6,8.9c-3.8,2.1-6.5-0.2-8.3-3.5l-1.6-2.9L161.3,42.1z
				 M165.1,64.5c2.3-0.8,2.9-2.5,2.4-4.1c-0.5-1.6-2-2.6-4.3-1.8c-2.3,0.8-3,2.5-2.4,4.1C161.2,64.3,162.8,65.3,165.1,64.5z
				 M166,67.2c-3.4,1.2-6.3-0.4-7.5-3.8s0.3-6.3,3.7-7.5c3.4-1.2,6.3,0.4,7.4,3.8S169.5,66.1,166,67.2z M173.2,77.9l-7.5,2.6
				l7.9,0.3l0.4,2.8l-11.5-1.2l-0.4-2.9l7.6-2.7l-8.1-0.8l-0.4-2.9l10.9-4l0.4,2.9l-7.5,2.4l7.9,0.6L173.2,77.9z M161.9,97l0.3-3.4
				l8.1-3.8l-7.7-0.6l0.2-2.7l11.3,0.9l-0.3,3.4l-8.1,3.8l7.7,0.6l-0.2,2.7L161.9,97z M160.3,116.7l3-8c0.2-0.6,0.8-0.8,1.4-0.6
				s0.8,0.8,0.6,1.4l-3,8c-0.2,0.6-0.8,0.8-1.4,0.6S160,117.3,160.3,116.7z M158.6,128.9c1.9,1.4,1.3,4,0,5.8
				c-1.3,1.9-3.3,2.9-5.4,2.1l1.2-2.4c0.8,0.3,1.7-0.1,2.4-1.1c0.6-0.8,0.8-1.6,0.3-2c-0.5-0.3-1.1-0.1-1.7,0.4l-1.2,1.1
				c-1.3,1.2-3.2,2.8-5.1,1.5c-2-1.4-1.6-4.2-0.3-6c1.7-2.5,3.9-3.2,6.1-2.3l-1.2,2.4c-1.1-0.4-2.1,0-3,1.2
				c-0.5,0.8-0.9,1.7-0.2,2.2c0.6,0.4,1.4-0.2,2.3-1l1.1-1C155.2,128.6,156.9,127.7,158.6,128.9z M142.8,142.3l-2.1,1.6
				c-1.5-2-1.2-4.7,0.8-6.8c2.5-2.6,5.5-2.6,8.2-0.1c2.6,2.5,2.7,5.7,0.2,8.2c-2,2.1-4.6,2.4-6.6,1l1.6-2.2c1.3,0.9,2.6,0.5,3.5-0.4
				c1.1-1.2,1.1-2.9-0.6-4.5c-1.7-1.7-3.4-1.6-4.6-0.4C142.3,139.6,141.8,140.9,142.8,142.3z M131.1,146.6l4.5,1.8l1.3-1l-2.5-3.3
				l2.1-1.7l6.9,8.9l-3.3,2.6c-2.3,1.8-4.5,2.6-6.3,0.4c-1-1.3-0.9-2.7-0.2-3.8l-5-1.9L131.1,146.6z M138.6,152.1l1.3-1l-1.5-1.9
				l-1.3,1c-1,0.8-1.7,1.5-1.1,2.3C136.7,153.3,137.6,152.9,138.6,152.1z M122.9,158.3c1.2,2.1,2.9,2.4,4.4,1.6
				c1.5-0.8,2.1-2.5,1-4.6c-1.2-2.1-3-2.5-4.4-1.6C122.3,154.5,121.7,156.2,122.9,158.3z M120.4,159.7c-1.8-3.2-0.7-6.3,2.3-8
				c3.1-1.7,6.3-0.9,8,2.2c1.8,3.2,0.7,6.2-2.4,8C125.3,163.6,122.1,162.9,120.4,159.7z M117.4,167l-3.2-8.3l-5.1,2l-0.8-2.2
				l7.7-2.9l4,10.5L117.4,167z M106.9,170.5l-2.1-8.7l-5.3,1.3l-0.6-2.3l8-1.9l2.6,11L106.9,170.5z M82.1,167c-0.1,3,2,3.4,4,3.4
				l0.6,0l0.3-6.5l-0.6,0C84.4,163.8,82.2,163.9,82.1,167z M89.3,172.9l-3.3-0.1c-3.7-0.2-7-1.6-6.8-5.9c0.2-4.4,3.5-5.5,7.3-5.3
				l3.3,0.1L89.3,172.9z M68,164.6c-0.6,2.4,0.6,3.7,2.2,4.1c1.6,0.4,3.2-0.4,3.8-2.7c0.6-2.4-0.6-3.8-2.2-4.2
				C70.2,161.4,68.6,162.2,68,164.6z M65.3,163.9c0.8-3.5,3.7-5.2,7.1-4.4c3.4,0.8,5.3,3.6,4.4,7.1c-0.8,3.5-3.7,5.1-7.1,4.3
				C66.3,170.1,64.4,167.5,65.3,163.9z M52.4,164.6l1.6-7.8l-4.4,6.6l-2.6-1.2l7-9.2l2.7,1.2l-1.7,7.9l4.8-6.5l2.6,1.2l-2.2,11.4
				l-2.6-1.2l1.9-7.6l-4.6,6.4L52.4,164.6z M41.9,145.2l2.8,1.9l-0.8,8.9l4.4-6.4l2.2,1.5l-6.4,9.3l-2.8-1.9l0.8-8.9l-4.4,6.4
				l-2.2-1.5L41.9,145.2z M25.3,134.3l5.6,6.4c0.4,0.4,0.3,1.1-0.1,1.5c-0.4,0.4-1.1,0.3-1.5-0.1l-5.6-6.4c-0.4-0.4-0.3-1.1,0.1-1.5
				C24.2,133.8,24.9,133.8,25.3,134.3z M15.3,127.2c-2.1,1.1-4.2-0.7-5.1-2.6c-1-2-1.1-4.3,0.7-5.8l1.6,2.2
				c-0.6,0.6-0.7,1.6-0.1,2.6c0.5,0.9,1.1,1.4,1.6,1.1c0.5-0.3,0.6-0.9,0.4-1.7l-0.4-1.5c-0.5-1.7-1-4.1,1-5.2
				c2.2-1.1,4.4,0.5,5.4,2.5c1.4,2.7,1,4.9-0.8,6.4l-1.6-2.2c0.9-0.8,1-1.9,0.3-3.2c-0.4-0.8-1.1-1.6-1.8-1.2
				c-0.6,0.3-0.5,1.4-0.2,2.5l0.4,1.4C17.1,124.3,17.2,126.2,15.3,127.2z M10.8,106.9l-0.5-2.6c2.5-0.4,4.7,1.2,5.6,3.9
				c1.1,3.4-0.3,6.1-3.8,7.3c-3.4,1.1-6.2-0.3-7.3-3.7c-0.9-2.7,0.1-5.2,2.3-6.3l1.2,2.4c-1.4,0.8-1.7,2.1-1.3,3.3
				c0.5,1.5,2,2.3,4.3,1.6c2.3-0.7,3-2.3,2.5-3.8C13.4,107.8,12.5,106.7,10.8,106.9z M12.7,94.6l-3.7,3l0.3,1.7l4.1-0.6l0.4,2.7
				L2.5,103l-0.6-4.2c-0.4-2.9-0.1-5.2,2.7-5.7c1.7-0.3,2.8,0.5,3.4,1.7l4.1-3.5L12.7,94.6z M4.2,98.4l0.2,1.6l2.4-0.4l-0.2-1.6
				c-0.2-1.3-0.5-2.2-1.5-2.1C4,96.2,4.1,97.1,4.2,98.4z M6.7,81.5c-2.4-0.1-3.6,1.3-3.6,3c0,1.7,1,3.1,3.4,3.2s3.6-1.3,3.7-3
				C10.3,83,9.1,81.6,6.7,81.5z M6.8,78.6c3.6,0.1,5.8,2.6,5.7,6.1c-0.1,3.5-2.4,5.9-6,5.8c-3.6-0.1-5.7-2.6-5.6-6.1
				S3.2,78.5,6.8,78.6z M2.1,72.3l8.8,1.6l1-5.4l2.3,0.4L12.7,77L1.6,74.9L2.1,72.3z M4.8,61.4l8.5,2.8l1.7-5.2l2.3,0.8l-2.6,7.8
				L3.9,64L4.8,61.4z M20.5,42.2c-2.5-1.6-3.9,0-5,1.7l-0.3,0.5l5.5,3.5l0.3-0.5C22.1,45.7,23,43.8,20.5,42.2z M11.7,45.4l1.8-2.7
				c2-3.1,4.9-5.2,8.6-2.9c3.7,2.4,3,5.8,0.9,9l-1.8,2.7L11.7,45.4z M29.4,31.2c-1.8-1.6-3.6-1.3-4.7-0.1c-1.1,1.2-1.2,3,0.6,4.6
				c1.8,1.6,3.6,1.4,4.7,0.1C31.1,34.7,31.2,32.8,29.4,31.2z M31.3,29.1c2.7,2.4,2.7,5.7,0.4,8.4s-5.7,2.9-8.3,0.5
				c-2.7-2.4-2.7-5.7-0.3-8.3S28.6,26.6,31.3,29.1z M36.7,17.5l6.1,5.1l-3.8-6.9l2.3-1.7l4.9,10.5l-2.3,1.8l-6.2-5.2l3.5,7.3
				l-2.3,1.8l-9-7.3l2.3-1.8l5.9,5.3l-3.5-7.1L36.7,17.5z M58.8,17.3l-3,1.6L48.3,14l3.6,6.9l-2.4,1.2l-5.2-10l3-1.6l7.5,4.8
				l-3.6-6.9l2.4-1.2L58.8,17.3z M76.3,8L68,9.8C67.4,10,66.8,9.6,66.7,9c-0.1-0.6,0.2-1.2,0.8-1.3l8.3-1.8c0.6-0.1,1.2,0.2,1.3,0.8
				C77.3,7.3,76.9,7.9,76.3,8z"/>
		</g>
	</g>
</g>
</svg>
