<?xml version="1.0" encoding="utf-8"?>
<!-- Generator: Adobe Illustrator 18.0.0, SVG Export Plug-In . SVG Version: 6.00 Build 0)  -->
<!DOCTYPE svg PUBLIC "-//W3C//DTD SVG 1.1//EN" "http://www.w3.org/Graphics/SVG/1.1/DTD/svg11.dtd">
<svg version="1.1" id="Layer_1" xmlns="http://www.w3.org/2000/svg" xmlns:xlink="http://www.w3.org/1999/xlink" x="0px" y="0px"
	 viewBox="214.2 11.3 540.3 541.3" enable-background="new 214.2 11.3 540.3 541.3" xml:space="preserve">
<title>Scroll Down — Scroll</title>
<desc>Created with Sketch.</desc>
<g>
	<path fill="#FFFFFF" d="M359.3,67c1.6,2.3,4.2,2.9,7.1,1.3c3.2-1.6,3.6-3.6,2.3-5.5c-1.3-2.6-3.6-2.6-8.1-1.6
		c-7.1,1.6-10.7,0.6-12.9-3.2c-2.9-5.2-0.3-10,4.9-12.9c6.5-3.6,11-1.6,13.9,2.6l-5.5,2.9c-1.3-1.9-3.2-2.9-6.2-1.3
		c-2.6,1.3-2.9,3.2-1.9,5.2c1,1.9,2.9,1.9,7.1,1c8.1-1.9,11.3,0,13.6,3.9c2.6,4.5,1.6,9.7-5.5,13.9c-5.8,3.2-11.3,2.6-14.9-2.9
		L359.3,67z"/>
	<path fill="#FFFFFF" d="M418.2,41.4c1,5.2-1,11-8.4,13.6c-9.4,3.2-14.9-2.6-17.8-11s-0.6-16.5,7.8-19.4c8.1-2.6,12.6,1.3,14.6,5.8
		l-5.8,1.9c-1.3-2.3-3.2-4.2-7.1-2.9c-4.9,1.6-4.9,7.1-3.2,12.3c1.9,5.5,4.9,10,10,8.1c3.9-1.3,4.2-4.5,3.9-6.8L418.2,41.4z"/>
	<path fill="#FFFFFF" d="M447,32.4l1.6,12.6l-6.2,0.6l-3.9-30.8l12.6-1.6c5.8-0.6,10.4,1.6,11,7.1c0.6,4.2-1.3,6.5-3.9,7.8
		c3.2,0.6,4.5,2.9,5.2,6.8v0.6c0.3,2.6,1,5.2,1.3,7.1l-6.2,0.6c-0.6-1.3-1-3.2-1.6-7.1v-1c-0.3-3.6-1.9-4.5-5.8-4.2L447,32.4z
		 M446.3,27.5l4.5-0.6c2.9-0.3,5.2-1.6,4.9-4.9c-0.3-2.9-2.6-3.6-5.2-3.2l-5.2,0.6L446.3,27.5z"/>
	<path fill="#FFFFFF" d="M514.6,28.2c-0.6,9.1-5.2,15.9-15.2,15.2c-9.7-0.6-13.3-8.1-12.6-17.2c0.3-7.8,5.2-15.5,15.2-14.9
		C511.1,12.3,515,20.1,514.6,28.2z M493.3,26.9c-0.3,6.2,1.6,11.3,6.8,11.7c5.5,0.3,7.8-4.2,8.1-10.7c0.3-5.8-1.3-11-6.8-11.3
		C496.2,16.5,493.6,21,493.3,26.9z"/>
	<path fill="#FFFFFF" d="M542.8,17.8l6.2,1.6l-6.5,24.9l13.6,3.6l-1.9,4.9l-18.8-4.9L542.8,17.8z"/>
	<path fill="#FFFFFF" d="M586.8,31.4l5.8,2.6L582,57.6l12.6,5.5l-2.6,4.5l-17.8-8.1L586.8,31.4z"/>
	<path fill="#FFFFFF" d="M654.5,78.3l-6.5-5.5l3.6-3.9L669,84.2l-3.6,3.9l-6.5-5.5l-16.8,19.7l-4.9-4.2L654.5,78.3z"/>
	<path fill="#FFFFFF" d="M692.3,133.4c-7.1,5.5-15.2,6.8-21.4-1c-6.2-7.4-2.9-15.2,4.2-20.7c5.8-4.9,14.9-6.5,21,1.3
		C701.7,120.1,698.8,128.2,692.3,133.4z M679.1,116.9c-4.9,3.9-7.1,8.7-4.2,12.6c3.2,4.2,8.1,2.9,13.3-1.3c4.5-3.6,7.1-8.1,3.6-12.6
		C688.8,111.7,683.6,113,679.1,116.9z"/>
	<path fill="#FFFFFF" d="M719.2,147.3l5.2,10c2.6,5.2,2.6,11-3.2,13.9c-5.8,2.9-11,0.3-13.9-5.5l-2.3-3.9l-10.7,5.5l-2.9-5.5
		L719.2,147.3z M709.8,159.3l1.9,3.6c1.6,2.9,3.6,4.2,6.8,2.6c2.6-1.3,2.9-3.9,1.3-6.8l-1.9-3.9L709.8,159.3z"/>
	<path fill="#FFFFFF" d="M734.1,235.7l-5.2,1l-2.3-11.7l5.2-1L734.1,235.7z"/>
	<path fill="#FFFFFF" d="M732.8,293.6c-2.9,0.3-4.9,1.9-5.2,5.2c-0.3,3.6,1.3,4.9,3.6,4.9c2.9,0.3,4.2-1.3,5.5-5.8
		c2.6-7.1,5.2-9.4,9.7-9.1c5.8,0.3,8.4,5.2,8.1,11c-0.6,7.4-4.5,10.4-9.7,10.4l0.3-6.2c2.3-0.3,4.2-1.3,4.2-4.5
		c0.3-2.9-1-4.2-3.2-4.5c-2.3,0-2.9,1.3-4.5,5.5c-2.9,7.8-6.2,9.7-10.7,9.4c-5.2-0.3-9.1-3.9-8.7-12c0.3-6.8,4.2-11,10.4-11
		L732.8,293.6z"/>
	<path fill="#FFFFFF" d="M722.8,357c-4.9-2.3-8.7-6.8-6.8-14.6c2.6-9.4,10.4-11,18.8-8.7c8.4,2.3,14.2,8.4,12,17.2
		c-1.9,8.1-8.1,10-12.9,9.1l1.6-5.8c2.6,0,5.2-0.3,6.5-4.5c1.3-4.9-3.2-8.1-8.7-9.4c-5.8-1.6-11-1.3-12.3,3.9
		c-1,3.9,1.3,5.8,3.6,7.1L722.8,357z"/>
	<path fill="#FFFFFF" d="M714.7,386.2l-11.7-5.5l2.6-5.5l28.2,13.3l-5.5,11.3c-2.6,5.2-6.8,7.8-12,5.5c-3.9-1.9-4.9-4.9-4.5-7.4
		c-2.3,2.3-5.2,2.3-8.4,0.6l-0.6-0.3c-2.6-1.3-4.9-2.3-6.5-2.6l2.6-5.5c1.3,0,3.2,1,6.8,2.6l0.6,0.3c3.2,1.6,4.9,1,6.5-2.9
		L714.7,386.2z M719.2,388.1l-1.9,4.2c-1.3,2.6-1.6,5.2,1.6,6.8c2.6,1.3,4.5-0.3,5.5-2.6l2.3-5.2L719.2,388.1z"/>
	<path fill="#FFFFFF" d="M681.3,445.1c-7.1-5.2-10.4-12.9-4.5-21c5.8-7.8,13.9-6.5,21-1.3c6.2,4.5,10,12.6,4.2,20.7
		C696.6,450.9,688.1,449.9,681.3,445.1z M694,427.9c-4.9-3.6-10.4-4.5-13.3-0.6c-3.2,4.2-0.6,8.7,4.5,12.6c4.5,3.6,9.7,4.9,12.9,0.3
		C701.4,436,698.8,431.5,694,427.9z"/>
	<path fill="#FFFFFF" d="M674.9,474.5l-4.5,4.2l-17.5-19.1l-10,9.4l-2.9-4.2l14.2-13.3L674.9,474.5z"/>
	<path fill="#FFFFFF" d="M639.9,504l-5.2,3.6l-14.2-21.7l-11.7,7.4l-2.6-4.5l16.2-10.7L639.9,504z"/>
	<path fill="#FFFFFF" d="M563.5,535.7l8.1-2.3l1.6,4.9l-22.3,6.5l-1.6-4.9l8.1-2.3l-7.4-24.6l6.2-1.9L563.5,535.7z"/>
	<path fill="#FFFFFF" d="M496.8,537.3c-1-8.7,2.6-16.5,12.3-17.5c9.4-1,14.2,5.8,15.2,14.9c0.6,7.8-2.6,16.2-12.3,17.2
		C502.7,552.9,497.8,545.8,496.8,537.3z M517.9,535.4c-0.6-6.2-3.6-10.7-8.4-10.4c-5.5,0.6-6.8,5.2-6.2,11.7
		c0.6,5.8,2.9,10.4,8.4,10C516.9,546.1,518.5,541.2,517.9,535.4z"/>
	<path fill="#FFFFFF" d="M470.6,552.6l-11.3-1c-5.8-0.6-10.7-3.9-10-10.4c0.6-6.5,5.5-9.4,12.3-8.7l4.5,0.3l1-11.7l6.5,0.6
		L470.6,552.6z M465.4,538l-4.2-0.3c-3.2-0.3-5.5,0.6-5.8,4.2c-0.3,3.2,1.6,4.5,4.9,4.9l4.2,0.3L465.4,538z"/>
	<path fill="#FFFFFF" d="M388.1,517.3l1.9-4.9l11,4.2l-1.9,4.9L388.1,517.3z"/>
	<path fill="#FFFFFF" d="M340.2,484.9c1.3-2.6,1-5.2-1.6-7.1c-2.9-2.3-4.9-1.6-6.2,0c-1.6,2.3-1,4.2,1.9,7.8
		c4.5,5.8,4.9,9.4,2.3,12.9c-3.6,4.5-9.1,4.5-13.6,1c-5.8-4.5-6.2-9.4-3.6-13.6l4.9,3.6c-1,1.9-1.3,4.2,1.3,6.2
		c2.3,1.6,4.2,1.3,5.5-0.3c1.3-1.9,0.6-3.2-2.3-7.1c-4.9-6.5-4.9-10.4-1.9-13.9c2.9-4.2,8.4-5.5,14.9-0.6c5.5,4.2,6.8,9.4,3.6,14.6
		L340.2,484.9z"/>
	<path fill="#FFFFFF" d="M292.3,441.5c4.5-2.9,10.4-3.9,15.9,2.3c6.5,7.1,3.9,14.6-2.6,20.7c-6.5,5.8-14.9,7.4-21,1
		c-5.8-6.2-3.9-12.3-0.6-15.5l4.2,4.5c-1.3,2.3-2.6,4.5,0.3,7.8c3.6,3.9,8.4,1.6,12.6-2.3c4.2-3.9,7.1-8.7,3.2-12.6
		c-2.9-2.9-5.8-1.9-7.8-1L292.3,441.5z"/>
	<path fill="#FFFFFF" d="M272.5,419.2l11-6.8l3.2,5.2l-26.2,16.5l-6.8-10.7c-3.2-4.9-2.9-10,1.9-12.9c3.6-2.3,6.5-1.3,8.7,0.3
		c-0.6-3.2,1-5.5,4.2-7.4l0.6-0.3c2.3-1.3,4.5-2.9,5.8-4.2l3.2,5.2c-1,1-2.6,2.3-5.8,4.2l-0.6,0.3c-2.9,1.9-3.2,3.6-1.3,7.1
		L272.5,419.2z M268.3,421.8l-2.6-3.9c-1.6-2.6-3.6-4.2-6.5-2.3c-2.6,1.6-2.3,3.9-1,6.2l2.9,4.9L268.3,421.8z"/>
	<path fill="#FFFFFF" d="M240.8,359.3c8.4-3.2,16.5-1.6,20.1,7.4c3.2,9.1-1.9,15.5-10.4,18.5c-7.1,2.6-16.2,1.6-19.7-7.8
		C227.5,369,233,362.2,240.8,359.3z M248.2,379.4c5.8-2.3,9.4-6.2,7.8-10.7c-1.9-5.2-6.8-5.2-12.9-2.9c-5.5,1.9-9.4,5.5-7.4,10.7
		C237.5,381,242.7,381.3,248.2,379.4z"/>
	<path fill="#FFFFFF" d="M219.4,337.9l-1-6.2l25.6-4.5l-2.3-13.6l5.2-0.3l3.6,19.1L219.4,337.9z"/>
	<path fill="#FFFFFF" d="M220.4,255.4l-1,8.4l-5.2-0.6l2.6-23l5.2,0.6l-1,8.1l25.6,2.9l-0.6,6.5L220.4,255.4z"/>
	<path fill="#FFFFFF" d="M244.7,193.2c8.4,2.6,14.2,8.7,11.3,18.1c-2.9,9.1-11,11-19.4,8.4c-7.4-2.3-13.9-8.7-11-18.1
		C228.2,192.9,236.6,191,244.7,193.2z M238.5,213.6c5.8,1.9,11.3,1,12.9-3.9c1.6-5.2-2.3-8.4-8.4-10.4c-5.5-1.6-11-1.3-12.6,3.9
		C228.8,208.5,232.7,212,238.5,213.6z"/>
	<path fill="#FFFFFF" d="M241.1,163.1l5.5-10c2.9-5.2,7.8-8.1,13.3-5.2c5.8,2.9,6.5,8.7,3.2,14.9l-2.3,3.9l10.7,5.8l-3.2,5.5
		L241.1,163.1z M256.6,164.4l1.9-3.6c1.6-2.9,1.6-5.5-1.6-7.1c-2.6-1.6-4.9-0.3-6.5,2.6l-1.9,3.9L256.6,164.4z"/>
	<path fill="#FFFFFF" d="M306.2,101.3l3.6,3.6l-8.1,8.4l-3.6-3.6L306.2,101.3z"/>
</g>
</svg>
